<svg width="154" height="29" viewBox="0 0 154 29" fill="none" xmlns="http://www.w3.org/2000/svg">
<rect x="0.75" y="0.75" width="152.5" height="27.5" stroke="#1C3659" stroke-width="1.5"/>
<rect x="1" y="22" width="152" height="6" fill="#1C3659"/>
<path d="M10.516 9.59L7.59097 16.61C7.53897 16.7487 7.46097 16.857 7.35697 16.935C7.25297 17.013 7.13597 17.052 7.00597 17.052C6.8153 17.052 6.6723 17 6.57697 16.896C6.48163 16.7833 6.42963 16.6447 6.42097 16.48C6.42097 16.4193 6.43397 16.35 6.45997 16.272L9.76197 8.29C9.82263 8.14267 9.9093 8.03 10.022 7.952C10.1433 7.874 10.2733 7.83933 10.412 7.848C10.542 7.848 10.6633 7.887 10.776 7.965C10.8886 8.043 10.971 8.15133 11.023 8.29L14.286 16.155C14.3206 16.2417 14.338 16.3283 14.338 16.415C14.338 16.6057 14.273 16.7617 14.143 16.883C14.0216 16.9957 13.883 17.052 13.727 17.052C13.597 17.052 13.4756 17.013 13.363 16.935C13.259 16.8483 13.181 16.74 13.129 16.61L10.178 9.629L10.516 9.59ZM8.11097 14.764L8.69597 13.516H12.375L12.596 14.764H8.11097ZM24.2518 7.9C24.4251 7.9 24.5638 7.96067 24.6678 8.082C24.7805 8.19467 24.8368 8.33767 24.8368 8.511V16.337C24.8368 16.5277 24.7718 16.688 24.6418 16.818C24.5205 16.9393 24.3645 17 24.1738 17C24.0871 17 23.9918 16.9827 23.8878 16.948C23.7925 16.9133 23.7188 16.8657 23.6668 16.805L18.3238 9.876L18.6228 9.707V16.402C18.6228 16.5667 18.5665 16.7097 18.4538 16.831C18.3411 16.9437 18.1981 17 18.0248 17C17.8428 17 17.6955 16.9437 17.5828 16.831C17.4788 16.7097 17.4268 16.5667 17.4268 16.402V8.563C17.4268 8.36367 17.4918 8.20333 17.6218 8.082C17.7518 7.96067 17.9078 7.9 18.0898 7.9C18.1851 7.9 18.2848 7.92167 18.3888 7.965C18.5015 7.99967 18.5838 8.056 18.6358 8.134L23.8488 14.92L23.6538 15.102V8.511C23.6538 8.33767 23.7101 8.19467 23.8228 8.082C23.9355 7.96067 24.0785 7.9 24.2518 7.9ZM35.606 7.9C35.7793 7.9 35.918 7.96067 36.022 8.082C36.1346 8.19467 36.191 8.33767 36.191 8.511V16.337C36.191 16.5277 36.126 16.688 35.996 16.818C35.8746 16.9393 35.7186 17 35.528 17C35.4413 17 35.346 16.9827 35.242 16.948C35.1466 16.9133 35.073 16.8657 35.021 16.805L29.678 9.876L29.977 9.707V16.402C29.977 16.5667 29.9206 16.7097 29.808 16.831C29.6953 16.9437 29.5523 17 29.379 17C29.197 17 29.0496 16.9437 28.937 16.831C28.833 16.7097 28.781 16.5667 28.781 16.402V8.563C28.781 8.36367 28.846 8.20333 28.976 8.082C29.106 7.96067 29.262 7.9 29.444 7.9C29.5393 7.9 29.639 7.92167 29.743 7.965C29.8556 7.99967 29.938 8.056 29.99 8.134L35.203 14.92L35.008 15.102V8.511C35.008 8.33767 35.0643 8.19467 35.177 8.082C35.2896 7.96067 35.4326 7.9 35.606 7.9ZM43.3851 9.59L40.4601 16.61C40.4081 16.7487 40.3301 16.857 40.2261 16.935C40.1221 17.013 40.0051 17.052 39.8751 17.052C39.6845 17.052 39.5415 17 39.4461 16.896C39.3508 16.7833 39.2988 16.6447 39.2901 16.48C39.2901 16.4193 39.3031 16.35 39.3291 16.272L42.6311 8.29C42.6918 8.14267 42.7785 8.03 42.8911 7.952C43.0125 7.874 43.1425 7.83933 43.2811 7.848C43.4111 7.848 43.5325 7.887 43.6451 7.965C43.7578 8.043 43.8401 8.15133 43.8921 8.29L47.1551 16.155C47.1898 16.2417 47.2071 16.3283 47.2071 16.415C47.2071 16.6057 47.1421 16.7617 47.0121 16.883C46.8908 16.9957 46.7521 17.052 46.5961 17.052C46.4661 17.052 46.3448 17.013 46.2321 16.935C46.1281 16.8483 46.0501 16.74 45.9981 16.61L43.0471 9.629L43.3851 9.59ZM40.9801 14.764L41.5651 13.516H45.2441L45.4651 14.764H40.9801ZM62.5591 7.9C62.7325 7.9 62.8711 7.96067 62.9751 8.082C63.0878 8.19467 63.1441 8.33767 63.1441 8.511V16.337C63.1441 16.5277 63.0791 16.688 62.9491 16.818C62.8278 16.9393 62.6718 17 62.4811 17C62.3945 17 62.2991 16.9827 62.1951 16.948C62.0998 16.9133 62.0261 16.8657 61.9741 16.805L56.6311 9.876L56.9301 9.707V16.402C56.9301 16.5667 56.8738 16.7097 56.7611 16.831C56.6485 16.9437 56.5055 17 56.3321 17C56.1501 17 56.0028 16.9437 55.8901 16.831C55.7861 16.7097 55.7341 16.5667 55.7341 16.402V8.563C55.7341 8.36367 55.7991 8.20333 55.9291 8.082C56.0591 7.96067 56.2151 7.9 56.3971 7.9C56.4925 7.9 56.5921 7.92167 56.6961 7.965C56.8088 7.99967 56.8911 8.056 56.9431 8.134L62.1561 14.92L61.9611 15.102V8.511C61.9611 8.33767 62.0175 8.19467 62.1301 8.082C62.2428 7.96067 62.3858 7.9 62.5591 7.9ZM70.3383 9.59L67.4133 16.61C67.3613 16.7487 67.2833 16.857 67.1793 16.935C67.0753 17.013 66.9583 17.052 66.8283 17.052C66.6376 17.052 66.4946 17 66.3993 16.896C66.304 16.7833 66.252 16.6447 66.2433 16.48C66.2433 16.4193 66.2563 16.35 66.2823 16.272L69.5843 8.29C69.645 8.14267 69.7316 8.03 69.8443 7.952C69.9656 7.874 70.0956 7.83933 70.2343 7.848C70.3643 7.848 70.4856 7.887 70.5983 7.965C70.711 8.043 70.7933 8.15133 70.8453 8.29L74.1083 16.155C74.143 16.2417 74.1603 16.3283 74.1603 16.415C74.1603 16.6057 74.0953 16.7617 73.9653 16.883C73.844 16.9957 73.7053 17.052 73.5493 17.052C73.4193 17.052 73.298 17.013 73.1853 16.935C73.0813 16.8483 73.0033 16.74 72.9513 16.61L70.0003 9.629L70.3383 9.59ZM67.9333 14.764L68.5183 13.516H72.1973L72.4183 14.764H67.9333ZM83.3981 7.9C83.5628 7.9 83.7188 7.96067 83.8661 8.082C84.0221 8.19467 84.1001 8.34633 84.1001 8.537C84.1001 8.67567 84.0525 8.81433 83.9571 8.953L78.6661 15.83L78.5491 15.752H83.3071C83.4891 15.752 83.6408 15.8083 83.7621 15.921C83.8921 16.0337 83.9571 16.1853 83.9571 16.376C83.9571 16.5493 83.8921 16.6967 83.7621 16.818C83.6408 16.9393 83.4891 17 83.3071 17H77.4181C77.2275 17 77.0628 16.935 76.9241 16.805C76.7941 16.6663 76.7291 16.5147 76.7291 16.35C76.7291 16.2113 76.7811 16.077 76.8851 15.947L82.1761 9.07L82.2801 9.148H77.8731C77.6911 9.148 77.5351 9.09167 77.4051 8.979C77.2838 8.85767 77.2231 8.70167 77.2231 8.511C77.2231 8.329 77.2838 8.18167 77.4051 8.069C77.5351 7.95633 77.6911 7.9 77.8731 7.9H83.3981ZM90.7361 9.59L87.8111 16.61C87.7591 16.7487 87.6811 16.857 87.5771 16.935C87.4731 17.013 87.3561 17.052 87.2261 17.052C87.0355 17.052 86.8925 17 86.7971 16.896C86.7018 16.7833 86.6498 16.6447 86.6411 16.48C86.6411 16.4193 86.6541 16.35 86.6801 16.272L89.9821 8.29C90.0428 8.14267 90.1295 8.03 90.2421 7.952C90.3635 7.874 90.4935 7.83933 90.6321 7.848C90.7621 7.848 90.8835 7.887 90.9961 7.965C91.1088 8.043 91.1911 8.15133 91.2431 8.29L94.5061 16.155C94.5408 16.2417 94.5581 16.3283 94.5581 16.415C94.5581 16.6057 94.4931 16.7617 94.3631 16.883C94.2418 16.9957 94.1031 17.052 93.9471 17.052C93.8171 17.052 93.6958 17.013 93.5831 16.935C93.4791 16.8483 93.4011 16.74 93.3491 16.61L90.3981 9.629L90.7361 9.59ZM88.3311 14.764L88.9161 13.516H92.5951L92.8161 14.764H88.3311ZM98.4269 17C98.2189 17 98.0369 16.9393 97.8809 16.818C97.7249 16.688 97.6469 16.5277 97.6469 16.337V8.563C97.6469 8.37233 97.7119 8.21633 97.8419 8.095C97.9719 7.965 98.1279 7.9 98.3099 7.9H101.976C102.444 7.9 102.873 8.017 103.263 8.251C103.653 8.47633 103.965 8.79267 104.199 9.2C104.442 9.59867 104.563 10.058 104.563 10.578C104.563 10.9247 104.494 11.2583 104.355 11.579C104.216 11.891 104.03 12.1683 103.796 12.411C103.562 12.6537 103.298 12.8357 103.003 12.957L102.86 12.71C103.129 12.8053 103.363 12.944 103.562 13.126C103.761 13.2993 103.917 13.5073 104.03 13.75C104.151 13.984 104.216 14.2527 104.225 14.556C104.251 14.8247 104.273 15.05 104.29 15.232C104.316 15.4053 104.351 15.5483 104.394 15.661C104.437 15.7737 104.515 15.8603 104.628 15.921C104.784 16.0077 104.879 16.1377 104.914 16.311C104.957 16.4843 104.923 16.6403 104.81 16.779C104.732 16.883 104.632 16.9523 104.511 16.987C104.398 17.013 104.281 17.0173 104.16 17C104.039 16.974 103.935 16.9393 103.848 16.896C103.709 16.8093 103.566 16.688 103.419 16.532C103.28 16.3673 103.168 16.142 103.081 15.856C102.994 15.57 102.951 15.193 102.951 14.725C102.951 14.5083 102.916 14.322 102.847 14.166C102.778 14.01 102.682 13.8843 102.561 13.789C102.44 13.685 102.297 13.6113 102.132 13.568C101.967 13.516 101.785 13.49 101.586 13.49H98.8299L99.0119 13.23V16.337C99.0119 16.5277 98.9599 16.688 98.8559 16.818C98.7519 16.9393 98.6089 17 98.4269 17ZM98.8429 12.359H101.95C102.149 12.3503 102.34 12.2723 102.522 12.125C102.713 11.969 102.864 11.761 102.977 11.501C103.098 11.241 103.159 10.9463 103.159 10.617C103.159 10.201 103.033 9.85433 102.782 9.577C102.539 9.291 102.249 9.148 101.911 9.148H98.8689L99.0119 8.81V12.632L98.8429 12.359ZM108.979 7.9H113.477C113.659 7.9 113.81 7.96067 113.932 8.082C114.062 8.20333 114.127 8.355 114.127 8.537C114.127 8.719 114.062 8.86633 113.932 8.979C113.81 9.09167 113.659 9.148 113.477 9.148H109.551L109.681 8.927V11.839L109.564 11.709H112.892C113.074 11.709 113.225 11.7697 113.347 11.891C113.477 12.0123 113.542 12.1683 113.542 12.359C113.542 12.541 113.477 12.6883 113.347 12.801C113.225 12.9137 113.074 12.97 112.892 12.97H109.59L109.681 12.853V15.856L109.59 15.752H113.477C113.659 15.752 113.81 15.817 113.932 15.947C114.062 16.0683 114.127 16.2113 114.127 16.376C114.127 16.558 114.062 16.7097 113.932 16.831C113.81 16.9437 113.659 17 113.477 17H108.979C108.797 17 108.641 16.9393 108.511 16.818C108.381 16.688 108.316 16.5277 108.316 16.337V8.563C108.316 8.37233 108.381 8.21633 108.511 8.095C108.641 7.965 108.797 7.9 108.979 7.9ZM124.387 7.9C124.561 7.9 124.699 7.96067 124.803 8.082C124.916 8.19467 124.972 8.33767 124.972 8.511V16.337C124.972 16.5277 124.907 16.688 124.777 16.818C124.656 16.9393 124.5 17 124.309 17C124.223 17 124.127 16.9827 124.023 16.948C123.928 16.9133 123.854 16.8657 123.802 16.805L118.459 9.876L118.758 9.707V16.402C118.758 16.5667 118.702 16.7097 118.589 16.831C118.477 16.9437 118.334 17 118.16 17C117.978 17 117.831 16.9437 117.718 16.831C117.614 16.7097 117.562 16.5667 117.562 16.402V8.563C117.562 8.36367 117.627 8.20333 117.757 8.082C117.887 7.96067 118.043 7.9 118.225 7.9C118.321 7.9 118.42 7.92167 118.524 7.965C118.637 7.99967 118.719 8.056 118.771 8.134L123.984 14.92L123.789 15.102V8.511C123.789 8.33767 123.846 8.19467 123.958 8.082C124.071 7.96067 124.214 7.9 124.387 7.9ZM135.261 17.013C135.061 17.013 134.901 16.9307 134.78 16.766L131.543 12.593L132.544 11.579L135.846 15.882C135.95 16.0207 136.002 16.1723 136.002 16.337C136.002 16.545 135.924 16.7097 135.768 16.831C135.612 16.9523 135.443 17.013 135.261 17.013ZM135.326 7.861C135.499 7.861 135.642 7.93033 135.755 8.069C135.867 8.20767 135.924 8.35067 135.924 8.498C135.924 8.654 135.859 8.797 135.729 8.927L130.126 14.244L130.048 12.71L134.806 8.108C134.962 7.94333 135.135 7.861 135.326 7.861ZM129.593 17C129.393 17 129.229 16.9393 129.099 16.818C128.977 16.688 128.917 16.5277 128.917 16.337V8.563C128.917 8.37233 128.982 8.21633 129.112 8.095C129.242 7.965 129.411 7.9 129.619 7.9C129.818 7.9 129.978 7.965 130.1 8.095C130.221 8.21633 130.282 8.37233 130.282 8.563V16.337C130.273 16.5277 130.208 16.688 130.087 16.818C129.965 16.9393 129.801 17 129.593 17ZM147.244 12.45C147.244 13.1087 147.136 13.724 146.919 14.296C146.703 14.8593 146.395 15.3533 145.996 15.778C145.606 16.2027 145.143 16.5363 144.605 16.779C144.068 17.013 143.479 17.13 142.837 17.13C142.205 17.13 141.62 17.013 141.082 16.779C140.545 16.5363 140.077 16.2027 139.678 15.778C139.288 15.3533 138.985 14.8593 138.768 14.296C138.56 13.724 138.456 13.1087 138.456 12.45C138.456 11.7913 138.56 11.1803 138.768 10.617C138.985 10.045 139.288 9.54667 139.678 9.122C140.077 8.69733 140.545 8.368 141.082 8.134C141.62 7.89133 142.205 7.77 142.837 7.77C143.479 7.77 144.068 7.89133 144.605 8.134C145.143 8.368 145.606 8.69733 145.996 9.122C146.395 9.54667 146.703 10.045 146.919 10.617C147.136 11.1803 147.244 11.7913 147.244 12.45ZM145.84 12.45C145.84 11.8087 145.71 11.2323 145.45 10.721C145.199 10.2097 144.848 9.80667 144.397 9.512C143.947 9.21733 143.427 9.07 142.837 9.07C142.257 9.07 141.741 9.21733 141.29 9.512C140.84 9.80667 140.489 10.2097 140.237 10.721C139.986 11.2237 139.86 11.8 139.86 12.45C139.86 13.0913 139.986 13.6677 140.237 14.179C140.489 14.6903 140.84 15.0933 141.29 15.388C141.741 15.6827 142.257 15.83 142.837 15.83C143.427 15.83 143.947 15.6827 144.397 15.388C144.848 15.0933 145.199 14.6903 145.45 14.179C145.71 13.6677 145.84 13.0913 145.84 12.45Z" fill="#1C3659"/>
</svg>
